<svg id="MH_Logo" xmlns="http://www.w3.org/2000/svg" width="224" height="76.288" viewBox="0 0 224 76.288">
  <path id="Path_1" data-name="Path 1" d="M542.683,795.189a10.5,10.5,0,0,1,3.561.586,5.617,5.617,0,0,1,2.649,1.917,6.757,6.757,0,0,1,2.159-1.759,7.18,7.18,0,0,1,3.452-.744,8.5,8.5,0,0,1,2.616.4,6.243,6.243,0,0,1,2.143,1.173,5.441,5.441,0,0,1,1.435,1.917,6.279,6.279,0,0,1,.52,2.629v10.582h-4.414V802.54q0-3.675-3.088-3.676a3.027,3.027,0,0,0-2.427,1.029,4.694,4.694,0,0,0-.883,3.121v8.871h-4.413v-9.093a4.5,4.5,0,0,0-.82-2.962,3.249,3.249,0,0,0-2.616-.966,6.34,6.34,0,0,0-1.954.222,8.443,8.443,0,0,0-.946.38v12.42h-4.413V796.71c.084-.043.325-.148.724-.317a13.374,13.374,0,0,1,1.56-.522,20.315,20.315,0,0,1,2.27-.476,18.657,18.657,0,0,1,2.884-.205" transform="translate(-535.244 -758.761)" fill="#00808a"/>
  <path id="Path_2" data-name="Path 2" d="M644.6,799.02a4.563,4.563,0,0,1,.851-1.363,2.26,2.26,0,0,1,1.7-.538,2.973,2.973,0,0,1,1.608.38,3.613,3.613,0,0,1,.724.539q-.22.76-.63,1.822t-.914,2.249q-.5,1.189-1.024,2.393t-.962,2.218q-.914,2.091-1.875,4.056t-2.128,3.992q-.536.951-1.134,1.822a8.2,8.2,0,0,1-1.387,1.553,5.946,5.946,0,0,1-4.1,1.472,7.988,7.988,0,0,1-1.465-.126,10.411,10.411,0,0,1-1.182-.285,6.54,6.54,0,0,1-.8-.3.908.908,0,0,1-.331-.206l1.26-3.136a6.4,6.4,0,0,0,.836.285,4.6,4.6,0,0,0,1.308.19,2.6,2.6,0,0,0,1.671-.554,5.775,5.775,0,0,0,1.355-1.79l.946-1.806q-.536-.888-1.182-1.981t-1.293-2.234q-.646-1.141-1.276-2.249t-1.135-2.013q-.505-.9-.851-1.537t-.441-.823a9.03,9.03,0,0,1-.41-.935,2.75,2.75,0,0,1-.158-.966,2.233,2.233,0,0,1,.489-1.394,2.134,2.134,0,0,1,1.781-.633,3.383,3.383,0,0,1,1.892.411q.094.254.567,1.3t1.166,2.472q.694,1.426,1.5,3.042t1.56,3.009q.6-1.33,1.167-2.678t1.025-2.487q.456-1.141.787-1.98t.489-1.188" transform="translate(-604.821 -760.152)" fill="#00808a"/>
  <path id="Path_3" data-name="Path 3" d="M705.812,780.085a3.845,3.845,0,0,1,.315-.4,4.1,4.1,0,0,1,.867-.713,6.451,6.451,0,0,1,1.5-.68,7.208,7.208,0,0,1,2.238-.3,7.769,7.769,0,0,1,2.569.411,5.484,5.484,0,0,1,2.034,1.236,5.559,5.559,0,0,1,1.323,2.091,8.593,8.593,0,0,1,.474,3.01v9.949h-4.414v-9.347q0-3.675-3.372-3.676a3.022,3.022,0,0,0-2.633,1.267,5.4,5.4,0,0,0-.9,3.2v8.555H701.4V773.24a1.642,1.642,0,0,1,.63-1.488,3.017,3.017,0,0,1,1.671-.412,5.341,5.341,0,0,1,1.339.158q.615.159.772.222Z" transform="translate(-655.281 -741.565)" fill="#00808a"/>
  <path id="Path_4" data-name="Path 4" d="M785.641,803.807a9.177,9.177,0,0,1-.614,3.376,7.938,7.938,0,0,1-1.765,2.724,8.554,8.554,0,0,1-2.758,1.837,9.807,9.807,0,0,1-7.187,0,8.547,8.547,0,0,1-2.759-1.837,7.906,7.906,0,0,1-1.765-2.724,9.581,9.581,0,0,1,0-6.749,7.891,7.891,0,0,1,1.765-2.725,8.572,8.572,0,0,1,2.759-1.839,9.832,9.832,0,0,1,7.187,0,8.579,8.579,0,0,1,2.758,1.839,7.923,7.923,0,0,1,1.765,2.725,9.166,9.166,0,0,1,.614,3.374m-4.476,0a7.279,7.279,0,0,0-.267-2.011,4.52,4.52,0,0,0-.82-1.616,4.078,4.078,0,0,0-6.336,0,4.514,4.514,0,0,0-.82,1.616,7.7,7.7,0,0,0,0,4.024,4.5,4.5,0,0,0,.82,1.615,4.077,4.077,0,0,0,6.336,0,4.507,4.507,0,0,0,.82-1.615,7.284,7.284,0,0,0,.267-2.013" transform="translate(-703.524 -758.761)" fill="#00808a"/>
  <path id="Path_5" data-name="Path 5" d="M841.994,773.238a1.645,1.645,0,0,1,.63-1.489,3.02,3.02,0,0,1,1.671-.412,5.377,5.377,0,0,1,1.339.159c.41.106.667.18.772.222v22.971h-4.413Z" transform="translate(-756.851 -741.563)" fill="#00808a"/>
  <path id="Path_6" data-name="Path 6" d="M876.245,773.748a2.331,2.331,0,0,1-.726,1.726,2.424,2.424,0,0,1-1.765.713,2.388,2.388,0,0,1-1.734-.713,2.33,2.33,0,0,1-.725-1.726,2.281,2.281,0,0,1,.725-1.711,2.415,2.415,0,0,1,1.734-.7,2.452,2.452,0,0,1,1.765.7,2.282,2.282,0,0,1,.726,1.711m-4.666,6.685a1.644,1.644,0,0,1,.63-1.489,3.019,3.019,0,0,1,1.671-.411,5.324,5.324,0,0,1,1.339.158c.41.107.667.18.773.222v15.779h-4.413Z" transform="translate(-778.02 -741.565)" fill="#00808a"/>
  <path id="Path_7" data-name="Path 7" d="M915.606,794.691c-.126.02-.374.057-.741.111s-.826.1-1.371.142-1.166.084-1.86.127-1.419.063-2.175.063q-5.2,0-7.77-2.376a8.611,8.611,0,0,1-2.57-6.653,9.228,9.228,0,0,1,.6-3.437,7.266,7.266,0,0,1,1.623-2.519,6.887,6.887,0,0,1,2.364-1.537,7.784,7.784,0,0,1,2.853-.523,6.376,6.376,0,0,1,1.923.27,6.312,6.312,0,0,1,1.435.634,5.135,5.135,0,0,1,.9.681,4.126,4.126,0,0,1,.378.412V773.24a1.646,1.646,0,0,1,.63-1.49,3.017,3.017,0,0,1,1.671-.411,5.39,5.39,0,0,1,1.339.158q.615.159.773.222Zm-11.947-8.111a6.672,6.672,0,0,0,.3,2.044,4.521,4.521,0,0,0,.914,1.631,4.031,4.031,0,0,0,1.576,1.078,6.216,6.216,0,0,0,2.285.381,11.361,11.361,0,0,0,1.639-.1,3.3,3.3,0,0,0,.82-.19v-5.545a4.84,4.84,0,0,0-.914-3.011,3.227,3.227,0,0,0-2.742-1.2,3.381,3.381,0,0,0-2.853,1.348,5.736,5.736,0,0,0-1.024,3.564" transform="translate(-798.121 -741.564)" fill="#00808a"/>
  <path id="Path_8" data-name="Path 8" d="M983.407,812c-.062.021-.295.064-.693.127s-.929.128-1.591.191-1.446.122-2.349.173-1.891.079-2.964.079a15.341,15.341,0,0,1-3.829-.395,6.5,6.5,0,0,1-2.38-1.093,3.611,3.611,0,0,1-1.214-1.632,6.092,6.092,0,0,1-.33-2.045,6.306,6.306,0,0,1,.41-2.376,3.714,3.714,0,0,1,1.323-1.664,6.414,6.414,0,0,1,2.349-.965,16.442,16.442,0,0,1,3.483-.318q1.42,0,2.365.08t1.1.111v-.507q0-3.073-4.129-3.074a7.2,7.2,0,0,0-1.671.175,6.945,6.945,0,0,0-1.245.412,6.784,6.784,0,0,0-.883.476c-.242.158-.436.279-.583.364a2.437,2.437,0,0,1-1.135-2.06,1.714,1.714,0,0,1,.441-1.188,3.158,3.158,0,0,1,1.183-.792,6.878,6.878,0,0,1,1.7-.428,15.031,15.031,0,0,1,1.97-.127,17.145,17.145,0,0,1,3.514.333A7.334,7.334,0,0,1,981,797a5.354,5.354,0,0,1,1.781,2.154,7.96,7.96,0,0,1,.63,3.375Zm-4.35-6.97a6.372,6.372,0,0,0-1.071-.126q-.883-.064-1.892-.064a7.715,7.715,0,0,0-1.891.19,2.816,2.816,0,0,0-1.119.523,1.664,1.664,0,0,0-.537.792,3.261,3.261,0,0,0-.141.966,2.885,2.885,0,0,0,.126.855,1.574,1.574,0,0,0,.52.744,3,3,0,0,0,1.1.54,6.793,6.793,0,0,0,1.844.205,14.629,14.629,0,0,0,1.986-.111q.787-.11,1.071-.174Z" transform="translate(-847.924 -759.006)" fill="#00808a"/>
  <path id="Path_9" data-name="Path 9" d="M1039.138,799.02a4.557,4.557,0,0,1,.85-1.363,2.26,2.26,0,0,1,1.7-.538,2.97,2.97,0,0,1,1.607.38,3.592,3.592,0,0,1,.725.539q-.22.76-.63,1.822t-.915,2.249q-.5,1.189-1.023,2.393t-.963,2.218q-.914,2.091-1.875,4.056t-2.128,3.992q-.536.951-1.134,1.822a8.2,8.2,0,0,1-1.387,1.553,5.945,5.945,0,0,1-4.1,1.472,8,8,0,0,1-1.465-.126,10.425,10.425,0,0,1-1.182-.285,6.538,6.538,0,0,1-.8-.3.909.909,0,0,1-.33-.206l1.26-3.136a6.385,6.385,0,0,0,.836.285,4.6,4.6,0,0,0,1.308.19,2.6,2.6,0,0,0,1.671-.554,5.766,5.766,0,0,0,1.355-1.79l.946-1.806q-.536-.888-1.182-1.981t-1.292-2.234q-.646-1.141-1.277-2.249t-1.135-2.013q-.505-.9-.851-1.537t-.441-.823a8.95,8.95,0,0,1-.41-.935,2.745,2.745,0,0,1-.158-.966,2.235,2.235,0,0,1,.489-1.394,2.134,2.134,0,0,1,1.781-.633,3.878,3.878,0,0,1,1.4.19,3.829,3.829,0,0,1,.489.221c.063.169.251.6.567,1.3s.7,1.521,1.166,2.472.962,1.965,1.5,3.042,1.056,2.08,1.56,3.009q.6-1.33,1.167-2.678t1.024-2.487q.457-1.141.788-1.98t.489-1.188" transform="translate(-889.848 -760.152)" fill="#00808a"/>
  <path id="Path_10" data-name="Path 10" d="M1099.788,798.76a4.891,4.891,0,0,0-2.538.46,1.361,1.361,0,0,0-.678,1.156,1.129,1.129,0,0,0,.567,1,4.709,4.709,0,0,0,1.891.522l2.711.35a8.181,8.181,0,0,1,4.319,1.552,4.013,4.013,0,0,1,1.356,3.2,4.906,4.906,0,0,1-1.939,4.04,9.128,9.128,0,0,1-5.754,1.537,16.153,16.153,0,0,1-3.2-.285,17.266,17.266,0,0,1-2.411-.649,9.751,9.751,0,0,1-1.576-.7,4.353,4.353,0,0,1-.693-.46l1.7-3.009a3.471,3.471,0,0,0,.583.364,11.216,11.216,0,0,0,1.293.586,12.434,12.434,0,0,0,1.891.555,11.177,11.177,0,0,0,2.38.237,5.19,5.19,0,0,0,2.4-.4,1.261,1.261,0,0,0,.693-1.157,1.212,1.212,0,0,0-.567-1.093,5.47,5.47,0,0,0-2.08-.554l-2.082-.253a9.094,9.094,0,0,1-4.3-1.442,4.024,4.024,0,0,1-1.56-3.5,5.356,5.356,0,0,1,.394-2.043,4.27,4.27,0,0,1,1.245-1.681,6.384,6.384,0,0,1,2.238-1.14,11.571,11.571,0,0,1,3.373-.428,16.218,16.218,0,0,1,3.562.318,10.692,10.692,0,0,1,1.892.57q1.7.729,1.7,2a1.95,1.95,0,0,1-.441,1.33,3.9,3.9,0,0,1-.914.793c-.042-.043-.179-.159-.411-.349a5.058,5.058,0,0,0-1.008-.6,9.011,9.011,0,0,0-1.671-.571,9.77,9.77,0,0,0-2.364-.254" transform="translate(-937.353 -759.005)" fill="#00808a"/>
  <path id="Path_11" data-name="Path 11" d="M1114.216,667.254c1.816-2.77,6.2-1.837,8.6-.546a18.208,18.208,0,0,1,7.1,7.366c1.1,2.03,8.868,16.419,9.56,17.7l.04.076a2.137,2.137,0,0,1-1.833,3.2l-5.5-.055h-3.019c-1.239-.159-2.737-.754-4.1-3.277-.106-.223-9.437-16.981-10.238-18.554-.85-1.673-1.749-4.166-.6-5.911" transform="translate(-953.124 -665.22)" fill="#b81a52"/>
  <path id="Path_12" data-name="Path 12" d="M1064.3,694.329h-8.112a5.871,5.871,0,0,1-3.9-3.189l-.734-1.359c-1.789-3.274-3.584-6.534-5.339-9.828-1.311-2.461-2.53-5.016-3.954-7.405a15.977,15.977,0,0,0-7.308-6.879c.291-.745,1.418-.769,2.05-.844.979-.116,1.965-.183,2.951-.2a30.735,30.735,0,0,1,5.893.444,14.123,14.123,0,0,1,9.869,7.1l10.25,18.979.032.059a2.075,2.075,0,0,1-1.7,3.13" transform="translate(-896.249 -664.614)" fill="#b81a52"/>
  <path id="Path_13" data-name="Path 13" d="M1183.408,697.518l-10.25,18.979a14.121,14.121,0,0,1-9.869,7.1,30.71,30.71,0,0,1-5.893.444q-1.478-.031-2.95-.2c-.633-.075-1.759-.1-2.051-.844a15.977,15.977,0,0,0,7.309-6.878c1.423-2.39,2.643-4.945,3.954-7.406,1.755-3.294,3.55-6.554,5.339-9.828l.734-1.359a5.87,5.87,0,0,1,3.9-3.188,5.87,5.87,0,0,1-3.9-3.188l-.734-1.359c-1.788-3.275-3.584-6.534-5.339-9.829-1.311-2.461-2.531-5.016-3.954-7.406a15.98,15.98,0,0,0-7.309-6.878c.292-.745,1.417-.769,2.051-.844q1.469-.174,2.95-.2a30.72,30.72,0,0,1,5.893.445,14.12,14.12,0,0,1,9.869,7.1l10.25,18.979a6.333,6.333,0,0,0,3.6,3.188,6.332,6.332,0,0,0-3.6,3.188" transform="translate(-981.097 -664.614)" fill="#b81a52"/>
  <path id="Path_14" data-name="Path 14" d="M1272.46,670.084a21.9,21.9,0,0,0-1.7,2.463c-1.424,2.391-2.644,4.945-3.955,7.406-1.755,3.293-3.55,6.554-5.338,9.828l-.359.666a1.056,1.056,0,0,1-.452.446,1.621,1.621,0,0,1-1.718-.086,4.628,4.628,0,0,1-1.457-1.776s-3.641-6.888-3.641-6.888a3.84,3.84,0,0,1,.016-3.6l3.449-6.385a14.122,14.122,0,0,1,9.869-7.1c.96-.167,1.93-.287,2.9-.361q1.493-.114,2.993-.084c.554.011,1.108.042,1.66.084.206.016.413.038.618.058.224.022.449.037.673.063.632.074,1.759.1,2.05.844a14.124,14.124,0,0,0-5.608,4.415" transform="translate(-1054.067 -664.613)" fill="#b81a52"/>
  <path id="Path_23485" data-name="Path 23485" d="M1.656-11.448a.851.851,0,0,1,.27-.693,1.148,1.148,0,0,1,.756-.225,1.9,1.9,0,0,1,.567.081,1.86,1.86,0,0,1,.351.135V-1.692H9.63V0H1.656Zm12.114-.684a1.078,1.078,0,0,1-.342.8A1.143,1.143,0,0,1,12.6-11a1.122,1.122,0,0,1-.81-.333,1.078,1.078,0,0,1-.342-.8,1.078,1.078,0,0,1,.342-.8,1.122,1.122,0,0,1,.81-.333,1.143,1.143,0,0,1,.828.333A1.078,1.078,0,0,1,13.77-12.132ZM11.682-8.19a.762.762,0,0,1,.261-.648,1.183,1.183,0,0,1,.729-.2,2.192,2.192,0,0,1,.549.063,3.24,3.24,0,0,1,.333.1V0H11.682ZM24.93-8.64a10.535,10.535,0,0,1-.369,1.053q-.261.657-.6,1.467t-.747,1.7q-.405.891-.81,1.728t-.774,1.566Q21.258-.4,20.988.09H19.062q-.324-.576-.675-1.269t-.7-1.4Q17.334-3.294,17.01-4l-.6-1.305q-.279-.6-.486-1.071t-.315-.72q-.108-.252-.216-.54a1.542,1.542,0,0,1-.108-.54.929.929,0,0,1,.216-.594.894.894,0,0,1,.738-.27,1.7,1.7,0,0,1,.558.072,1.19,1.19,0,0,1,.216.09q.306.846.711,1.854t.828,1.989q.423.981.819,1.872t.7,1.5q.216-.414.567-1.179t.738-1.683q.387-.918.783-1.89t.7-1.782a1.748,1.748,0,0,1,.36-.621.967.967,0,0,1,.72-.225,1.3,1.3,0,0,1,.693.162A.955.955,0,0,1,24.93-8.64Zm9.864,2.772a2.254,2.254,0,0,1-.576,1.638,2.664,2.664,0,0,1-1.962.594H28.044a2.576,2.576,0,0,0,.945,1.746,3.346,3.346,0,0,0,2.115.612,5.713,5.713,0,0,0,1.683-.207,4.544,4.544,0,0,0,.891-.351l.576,1.35q-.09.054-.369.189a4.57,4.57,0,0,1-.72.261,9.609,9.609,0,0,1-1.026.225,7.617,7.617,0,0,1-1.269.1A5.969,5.969,0,0,1,28.989,0a4.276,4.276,0,0,1-1.521-.864,3.96,3.96,0,0,1-1.017-1.458,5.286,5.286,0,0,1-.369-2.052,5.529,5.529,0,0,1,.351-2.007,4.657,4.657,0,0,1,.981-1.566,4.377,4.377,0,0,1,1.494-1.017,4.914,4.914,0,0,1,1.908-.36,5.2,5.2,0,0,1,1.719.261,3.493,3.493,0,0,1,1.242.72,3.069,3.069,0,0,1,.756,1.089A3.587,3.587,0,0,1,34.794-5.868Zm-1.782-.18a2.1,2.1,0,0,0-.117-.684,1.583,1.583,0,0,0-.387-.612,2.053,2.053,0,0,0-.693-.441A2.712,2.712,0,0,0,30.8-7.956a2.52,2.52,0,0,0-1.206.279,2.825,2.825,0,0,0-.873.711A3.086,3.086,0,0,0,28.188-6a3.662,3.662,0,0,0-.2,1.053h3.8a1.488,1.488,0,0,0,.936-.234A1.068,1.068,0,0,0,33.012-6.048Zm10.926-1.44v4.644a1.556,1.556,0,0,0,.4,1.233,1.626,1.626,0,0,0,1.08.333,2.221,2.221,0,0,0,.54-.063,2.63,2.63,0,0,0,.45-.153,2.6,2.6,0,0,0,.324-.171l.18-.117.72,1.152-.27.207a2.561,2.561,0,0,1-.522.3,4.969,4.969,0,0,1-.783.261,4.2,4.2,0,0,1-1.035.117A3.689,3.689,0,0,1,43.686.036a2.426,2.426,0,0,1-.918-.6,2.424,2.424,0,0,1-.531-.909,3.623,3.623,0,0,1-.171-1.134V-7.488h-.828q-.864,0-.864-.774a1.236,1.236,0,0,1,.09-.495q.09-.207.126-.279h1.476V-11a.766.766,0,0,1,.261-.639,1.146,1.146,0,0,1,.729-.207,1.932,1.932,0,0,1,.549.072q.243.072.333.108v2.628h2.3q.846,0,.846.774a1.358,1.358,0,0,1-.081.495q-.081.207-.117.279Zm14.184,2.97a5.113,5.113,0,0,1-.351,1.908,4.518,4.518,0,0,1-.981,1.521A4.575,4.575,0,0,1,55.278-.081a4.988,4.988,0,0,1-1.944.369,5.055,5.055,0,0,1-1.953-.369A4.553,4.553,0,0,1,49.86-1.089a4.518,4.518,0,0,1-.981-1.521,5.113,5.113,0,0,1-.351-1.908,5.113,5.113,0,0,1,.351-1.908,4.518,4.518,0,0,1,.981-1.521,4.553,4.553,0,0,1,1.521-1.008,5.055,5.055,0,0,1,1.953-.369,4.988,4.988,0,0,1,1.944.369A4.575,4.575,0,0,1,56.79-7.947a4.518,4.518,0,0,1,.981,1.521A5.113,5.113,0,0,1,58.122-4.518Zm-1.926,0A4.22,4.22,0,0,0,56-5.841a3.127,3.127,0,0,0-.567-1.044,2.531,2.531,0,0,0-.9-.684,2.845,2.845,0,0,0-1.2-.243,2.89,2.89,0,0,0-1.215.243,2.531,2.531,0,0,0-.9.684,3.127,3.127,0,0,0-.567,1.044,4.22,4.22,0,0,0-.2,1.323,4.22,4.22,0,0,0,.2,1.323,3.127,3.127,0,0,0,.567,1.044,2.531,2.531,0,0,0,.9.684,2.89,2.89,0,0,0,1.215.243,2.845,2.845,0,0,0,1.2-.243,2.531,2.531,0,0,0,.9-.684A3.127,3.127,0,0,0,56-3.2,4.22,4.22,0,0,0,56.2-4.518ZM66.42-4.572a4.454,4.454,0,0,0,.2,1.359,2.767,2.767,0,0,0,.621,1.071,2.774,2.774,0,0,0,1.08.693,4.49,4.49,0,0,0,1.557.243,7.74,7.74,0,0,0,1.215-.072,3.711,3.711,0,0,0,.567-.126V-4.77A4.055,4.055,0,0,0,71.5-5.94a2.768,2.768,0,0,0-.486-.945,2.229,2.229,0,0,0-.8-.63,2.614,2.614,0,0,0-1.125-.225,2.392,2.392,0,0,0-1.989.846A3.626,3.626,0,0,0,66.42-4.572ZM73.53,0q-.072.018-.351.054t-.72.081q-.441.045-1.035.081t-1.3.036a7.994,7.994,0,0,1-2.5-.351,4.761,4.761,0,0,1-1.764-1,4,4,0,0,1-1.044-1.566,5.842,5.842,0,0,1-.342-2.052A5.43,5.43,0,0,1,64.8-6.651a4.225,4.225,0,0,1,.882-1.44,3.709,3.709,0,0,1,1.323-.891,4.443,4.443,0,0,1,1.665-.306,3.969,3.969,0,0,1,1.269.18,3.735,3.735,0,0,1,.891.423,2.729,2.729,0,0,1,.558.477q.2.234.27.342V-12.42q0-.846.99-.846a1.932,1.932,0,0,1,.549.072q.243.072.333.108ZM78.7-12.132a1.078,1.078,0,0,1-.342.8,1.143,1.143,0,0,1-.828.333,1.122,1.122,0,0,1-.81-.333,1.078,1.078,0,0,1-.342-.8,1.078,1.078,0,0,1,.342-.8,1.122,1.122,0,0,1,.81-.333,1.143,1.143,0,0,1,.828.333A1.078,1.078,0,0,1,78.7-12.132ZM76.608-8.19a.762.762,0,0,1,.261-.648,1.183,1.183,0,0,1,.729-.2,2.192,2.192,0,0,1,.549.063,3.239,3.239,0,0,1,.333.1V0H76.608Zm8.46.306a3.125,3.125,0,0,0-1.656.324,1.04,1.04,0,0,0-.486.918.812.812,0,0,0,.414.738,3.46,3.46,0,0,0,1.242.378l1.548.216a4.709,4.709,0,0,1,2.457.909,2.2,2.2,0,0,1,.729,1.719A2.6,2.6,0,0,1,88.308-.567,4.824,4.824,0,0,1,85.23.252,8.8,8.8,0,0,1,83.511.1a9.858,9.858,0,0,1-1.305-.342,4.756,4.756,0,0,1-.855-.378q-.315-.189-.387-.243l.738-1.3a3.851,3.851,0,0,0,.351.207,5.947,5.947,0,0,0,.729.324,6.973,6.973,0,0,0,1.062.3,6.806,6.806,0,0,0,1.368.126A3.62,3.62,0,0,0,86.8-1.485a.959.959,0,0,0,.558-.927.914.914,0,0,0-.405-.8,3.639,3.639,0,0,0-1.467-.423l-1.242-.18a5.074,5.074,0,0,1-2.34-.837,2.141,2.141,0,0,1-.828-1.827,2.878,2.878,0,0,1,.2-1.062,2.226,2.226,0,0,1,.657-.891,3.452,3.452,0,0,1,1.206-.621,6.248,6.248,0,0,1,1.845-.234,7.924,7.924,0,0,1,1.98.2,6.218,6.218,0,0,1,1.1.378q.738.378.738.918a.853.853,0,0,1-.2.585,1.892,1.892,0,0,1-.4.351q-.036-.036-.243-.207a2.874,2.874,0,0,0-.585-.351,5.165,5.165,0,0,0-.954-.324A5.609,5.609,0,0,0,85.068-7.884Zm11.016.126a3.242,3.242,0,0,0-1.17.207,2.675,2.675,0,0,0-.945.612,2.872,2.872,0,0,0-.639,1.008A3.9,3.9,0,0,0,93.1-4.518a4.008,4.008,0,0,0,.234,1.449,2.808,2.808,0,0,0,.648,1.008,2.558,2.558,0,0,0,.954.594,3.518,3.518,0,0,0,1.17.189,3.574,3.574,0,0,0,.828-.09,5.613,5.613,0,0,0,.666-.2,3.337,3.337,0,0,0,.477-.216,2.854,2.854,0,0,0,.261-.162l.792,1.278q-.162.108-.45.27a4.491,4.491,0,0,1-.693.306,6.265,6.265,0,0,1-.927.243,6.307,6.307,0,0,1-1.17.1,5.371,5.371,0,0,1-1.854-.315,4.224,4.224,0,0,1-1.494-.918,4.346,4.346,0,0,1-1-1.485,5.185,5.185,0,0,1-.369-2.016,5.252,5.252,0,0,1,.369-2.025,4.39,4.39,0,0,1,1.017-1.512,4.367,4.367,0,0,1,1.521-.945,5.364,5.364,0,0,1,1.881-.324,6.994,6.994,0,0,1,1.071.072,5.215,5.215,0,0,1,.792.18,3.2,3.2,0,0,1,.531.216q.2.108.306.18a1.39,1.39,0,0,1,.306.342.853.853,0,0,1,.126.468,1.216,1.216,0,0,1-.144.513,1.405,1.405,0,0,1-.432.513q-.108-.108-.306-.27a2.716,2.716,0,0,0-.5-.315,3.756,3.756,0,0,0-.711-.261A3.53,3.53,0,0,0,96.084-7.758Zm13.878,3.24a5.113,5.113,0,0,1-.351,1.908,4.518,4.518,0,0,1-.981,1.521,4.575,4.575,0,0,1-1.512,1.008,4.988,4.988,0,0,1-1.944.369,5.055,5.055,0,0,1-1.953-.369A4.553,4.553,0,0,1,101.7-1.089a4.518,4.518,0,0,1-.981-1.521,5.113,5.113,0,0,1-.351-1.908,5.113,5.113,0,0,1,.351-1.908,4.518,4.518,0,0,1,.981-1.521,4.553,4.553,0,0,1,1.521-1.008,5.055,5.055,0,0,1,1.953-.369,4.988,4.988,0,0,1,1.944.369,4.575,4.575,0,0,1,1.512,1.008,4.518,4.518,0,0,1,.981,1.521A5.113,5.113,0,0,1,109.962-4.518Zm-1.926,0a4.22,4.22,0,0,0-.2-1.323,3.127,3.127,0,0,0-.567-1.044,2.531,2.531,0,0,0-.9-.684,2.845,2.845,0,0,0-1.2-.243,2.89,2.89,0,0,0-1.215.243,2.531,2.531,0,0,0-.9.684,3.127,3.127,0,0,0-.567,1.044,4.22,4.22,0,0,0-.2,1.323,4.22,4.22,0,0,0,.2,1.323,3.127,3.127,0,0,0,.567,1.044,2.531,2.531,0,0,0,.9.684,2.89,2.89,0,0,0,1.215.243,2.845,2.845,0,0,0,1.2-.243,2.531,2.531,0,0,0,.9-.684,3.127,3.127,0,0,0,.567-1.044A4.22,4.22,0,0,0,108.036-4.518ZM120.744-8.64a10.535,10.535,0,0,1-.369,1.053q-.261.657-.6,1.467t-.747,1.7q-.4.891-.81,1.728t-.774,1.566Q117.072-.4,116.8.09h-1.926q-.324-.576-.675-1.269t-.7-1.4q-.351-.711-.675-1.413l-.6-1.305q-.279-.6-.486-1.071t-.315-.72q-.108-.252-.216-.54a1.542,1.542,0,0,1-.108-.54.929.929,0,0,1,.216-.594.894.894,0,0,1,.738-.27,1.7,1.7,0,0,1,.558.072,1.191,1.191,0,0,1,.216.09q.306.846.711,1.854t.828,1.989q.423.981.819,1.872t.7,1.5q.216-.414.567-1.179t.738-1.683q.387-.918.783-1.89t.7-1.782a1.748,1.748,0,0,1,.36-.621.967.967,0,0,1,.72-.225,1.3,1.3,0,0,1,.693.162A.955.955,0,0,1,120.744-8.64Zm9.864,2.772a2.254,2.254,0,0,1-.576,1.638,2.664,2.664,0,0,1-1.962.594h-4.212A2.576,2.576,0,0,0,124.8-1.89a3.346,3.346,0,0,0,2.115.612,5.713,5.713,0,0,0,1.683-.207,4.544,4.544,0,0,0,.891-.351l.576,1.35q-.09.054-.369.189a4.571,4.571,0,0,1-.72.261,9.609,9.609,0,0,1-1.026.225,7.617,7.617,0,0,1-1.269.1A5.969,5.969,0,0,1,124.8,0a4.276,4.276,0,0,1-1.521-.864,3.96,3.96,0,0,1-1.017-1.458,5.286,5.286,0,0,1-.369-2.052,5.529,5.529,0,0,1,.351-2.007,4.657,4.657,0,0,1,.981-1.566,4.377,4.377,0,0,1,1.494-1.017,4.914,4.914,0,0,1,1.908-.36,5.2,5.2,0,0,1,1.719.261,3.493,3.493,0,0,1,1.242.72,3.069,3.069,0,0,1,.756,1.089A3.587,3.587,0,0,1,130.608-5.868Zm-1.782-.18a2.1,2.1,0,0,0-.117-.684,1.583,1.583,0,0,0-.387-.612,2.053,2.053,0,0,0-.693-.441,2.712,2.712,0,0,0-1.017-.171,2.52,2.52,0,0,0-1.206.279,2.825,2.825,0,0,0-.873.711A3.086,3.086,0,0,0,124-6a3.662,3.662,0,0,0-.2,1.053h3.8a1.488,1.488,0,0,0,.936-.234A1.068,1.068,0,0,0,128.826-6.048Zm8.01-1.71a4.413,4.413,0,0,0-.792.063,4.391,4.391,0,0,0-.585.144,2.279,2.279,0,0,0-.387.162q-.144.081-.2.117V0H133.02V-8.226a2.513,2.513,0,0,1,.333-.225,5.035,5.035,0,0,1,.756-.36,8.189,8.189,0,0,1,1.125-.342,6.361,6.361,0,0,1,1.458-.153,6.319,6.319,0,0,1,1.179.09,2.668,2.668,0,0,1,.729.234.8.8,0,0,1,.5.738,1.08,1.08,0,0,1-.144.576,1.373,1.373,0,0,1-.252.324,2.559,2.559,0,0,0-.7-.27A4.4,4.4,0,0,0,136.836-7.758Z" transform="translate(29 76)" fill="#2c2c2c"/>
</svg>
